# xmcd
#
# Track frame offsets:
#	150
#	18950
#	33350
#	46237
#	61575
#	74097
#	87655
#	101325
#	120530
#	137327
#	153672
#	171175
#	182945
#
# Disc length: 2642 seconds
#
# Revision: 1
# Processed by: cddbd v1.5.1PL0 Copyright (c) Steve Scherf et al.
# Submitted via: EasyCDDAExtractor 6.0.0.1
#
DISCID=aa0a500d
DTITLE=Cheikh Sidi Bémol - El Bandi
DYEAR=2003
DGENRE=World
TTITLE0=Ma Kayen Walou Kima l'Amour
TTITLE1=Yemma
TTITLE2=Blad e Tchina
TTITLE3=Coulina
TTITLE4=Tamara Blues
TTITLE5=Fe Salam
TTITLE6=Amghar
TTITLE7=Ghoumari
TTITLE8=Maâliche
TTITLE9=Chkoun Qal
TTITLE10=I Don't Want to Leave My Bed
TTITLE11=Les Menotes es Siloun Wel Qellouza
TTITLE12=El Bandi
EXTD=
EXTT0=
EXTT1=
EXTT2=
EXTT3=
EXTT4=
EXTT5=
EXTT6=
EXTT7=
EXTT8=
EXTT9=
EXTT10=
EXTT11=
EXTT12=
PLAYORDER=
